# xmcd CD database file
#
# Track frame offsets:
#	150
#	15185
#	28233
#	42095
#	57119
#	70449
#	83703
#	95584
#	108369
#	121894
#	137214
#	157289
#	172785
#	187366
#	200159
#
# Disc length: 2914 seconds
#
# Revision: 2
# Processed by: cddbd v1.5.1PL0 Copyright (c) Steve Scherf et al.
# Submitted via: CDex 1.51
#
DISCID=d20b600f
DTITLE=Various Artist - 青春歌年鑑(1972年)Disc2
DYEAR=2000
DGENRE=Pop
TTITLE0=奥村チヨ - 終着駅
TTITLE1=欧陽菲菲 - 夜汽車
TTITLE2=南沙織 - 純潔
TTITLE3=森昌子 - せんせい
TTITLE4=欧陽菲菲 - 雨のエアポート
TTITLE5=郷ひろみ - 男の子女の子
TTITLE6=伊東ゆかり - 誰も知らない
TTITLE7=山本リンダ - どうにもとまらない
TTITLE8=小川知子 - 別れてよかった
TTITLE9=本田路津子 - 耳をすましてごらん
TTITLE10=上條恒彦 - 出発の歌
TTITLE11=高倉健 - 望郷子守唄
TTITLE12=渚ゆう子 - 長崎慕情
TTITLE13=南沙織 - 哀愁のページ
TTITLE14=あがた森魚 - 赤色エレジー
EXTD=YEAR: 2000
EXTT0=
EXTT1=
EXTT2=
EXTT3=
EXTT4=
EXTT5=
EXTT6=
EXTT7=
EXTT8=
EXTT9=
EXTT10=
EXTT11=
EXTT12=
EXTT13=
EXTT14=
PLAYORDER=
